<svg xmlns="http://www.w3.org/2000/svg" width="24" height="24" viewBox="0 0 24 24" fill="none">
  <g clip-path="url(#clip0_8259_487)">
    <path d="M0 24C0.280702 22.8772 0.561404 21.8947 0.842105 20.7719C1.12281 19.9298 1.40351 18.9474 1.54386 18.1053C1.54386 17.9649 1.54386 17.8246 1.54386 17.6842C-1.40351 12.2105 0.140351 5.61404 5.33333 2.10527C7.85965 0.421061 10.5263 -0.280694 13.4737 0.140359C18.386 0.842113 21.7544 3.64913 23.2982 8.42106C24.8421 12.7719 23.2982 17.8246 19.7895 20.9123C17.9649 22.5965 15.8596 23.579 13.3333 23.8597C10.9474 24.1404 8.5614 23.7193 6.45614 22.5965C6.45614 22.4561 6.17544 22.4561 6.03509 22.4561C4.07018 23.0176 2.24561 23.4386 0.280702 24C0.140351 24 0.140351 24 0 24ZM2.80702 21.193C2.94737 21.193 2.94737 21.193 2.94737 21.193C4.07018 20.9123 5.05263 20.6316 6.17544 20.3509C6.45614 20.3509 6.59649 20.3509 6.87719 20.4912C9.82456 22.1754 12.7719 22.4561 15.8596 21.0526C20.0702 19.2281 22.4561 14.8772 21.614 10.2456C21.0526 5.75439 16.9825 2.24562 12.4912 1.96492C9.96491 1.96492 7.7193 2.66667 5.75439 4.21053C3.50877 6.0351 2.24561 8.42106 2.10526 11.3684C1.96491 13.4737 2.52632 15.579 3.64912 17.2632C3.78947 17.4035 3.78947 17.5439 3.78947 17.6842C3.50877 18.9474 3.22807 20.0702 2.80702 21.193Z" fill="#D1FA2D"/>
    <path d="M8.14056 6.45619C8.70197 6.31584 8.98267 6.59654 9.12302 7.15794C9.40372 7.8597 9.68442 8.56145 9.96512 9.2632C10.1055 9.40356 10.1055 9.54391 9.82477 9.82461C9.68442 10.1053 9.40372 10.386 9.12302 10.8071C8.98267 10.9474 8.98267 11.2281 9.12302 11.3685C10.1055 13.0527 11.509 14.1755 13.1932 14.8772C13.4739 15.0176 13.6142 14.8772 13.7546 14.7369C14.0353 14.3158 14.316 14.0351 14.5967 13.6141C14.7371 13.3334 15.0178 13.3334 15.1581 13.4737C16.0002 13.8948 16.8423 14.3158 17.6844 14.7369C17.8248 14.7369 17.8248 14.8772 17.8248 15.0176C17.8248 15.8597 17.5441 16.7018 16.8423 17.1229C15.8599 17.6843 14.8774 17.8246 13.7546 17.5439C11.2283 16.7018 9.12302 15.0176 7.57916 12.772C6.87741 12.0702 6.316 11.2281 6.0353 10.2457C5.7546 9.12285 6.0353 8.00005 6.73705 7.01759C7.15811 6.59654 7.57916 6.31584 8.14056 6.45619Z" fill="#D1FA2D"/>
  </g>
  <defs>
    <clipPath id="clip0_8259_487">
      <rect width="24" height="24" fill="white"/>
    </clipPath>
  </defs>
</svg>